<?xml version="1.0" encoding="UTF-8"?>
<svg xmlns="http://www.w3.org/2000/svg" width="30" height="30" viewBox="0 0 30 30" fill="none">
  <path d="M10.0909 7.63623C8.73267 7.63623 7.63636 8.73254 7.63636 10.0908V11.7271C7.63636 12.1854 7.27642 12.5453 6.81818 12.5453H6V14.1817H6.81818C8.17642 14.1817 9.27273 13.0854 9.27273 11.7271V10.0908C9.27273 9.63254 9.63267 9.27259 10.0909 9.27259H10.9091V7.63623H10.0909Z" fill="white"></path>
  <path d="M19.91 17.4542C20.3682 17.4542 20.7282 17.8142 20.7282 18.2724V19.9088C20.7282 21.267 21.8245 22.3633 23.1827 22.3633H24.0009V20.727H23.1827C22.7245 20.727 22.3645 20.367 22.3645 19.9088V18.2724C22.3645 16.9142 21.2682 15.8179 19.91 15.8179H19.0918V17.4542H19.91Z" fill="white"></path>
  <path d="M19.91 10.9088C20.3682 10.9088 20.7282 11.2688 20.7282 11.727V14.1816H22.3645V11.727C22.3645 10.3688 21.2682 9.27246 19.91 9.27246H19.0918V10.9088H19.91Z" fill="white"></path>
  <path d="M7.63636 27.327H8.45455C10.7127 27.327 12.5455 25.4943 12.5455 23.2361V21.5998C12.5455 21.1415 12.9054 20.7816 13.3636 20.7816H14.1818V24.8725C14.1818 27.1307 16.0145 28.9634 18.2727 28.9634H19.0909V17.4543H15.8182V15.818H19.0909V10.9089H15.8182V9.2725H19.0909V6.81795C19.0909 5.75426 18.4037 4.8379 17.4545 4.51073V1.03613H12.5455V4.51073C11.5963 4.83795 10.9091 5.75426 10.9091 6.81795V7.63613H14.1818V9.2725H10.9091V12.5452H15.8182V14.1816H10.9091V15.8998C9.04364 16.2762 7.63636 17.9289 7.63636 19.9089V22.3634H6V23.9998H7.63636V27.327Z" fill="white"></path>
</svg>
