<svg width="37" height="37" viewBox="0 0 37 37" fill="none" xmlns="http://www.w3.org/2000/svg">
<foreignObject x="-54.4565" y="-54.4565" width="145.218" height="145.218"><div xmlns="http://www.w3.org/1999/xhtml" style="backdrop-filter:blur(27.23px);clip-path:url(#bgblur_0_904_5729_clip_path);height:100%;width:100%"></div></foreignObject><rect data-figma-bg-blur-radius="54.4565" width="36.3043" height="36.3043" rx="8.71304" fill="white" fill-opacity="0.5"/>
<path d="M23.95 11H12.25C10.4581 11 9 12.4581 9 14.25V22.05C9 23.8419 10.4581 25.3 12.25 25.3H23.95C25.7419 25.3 27.2 23.8419 27.2 22.05V14.25C27.2 12.4581 25.7419 11 23.95 11ZM24.4096 21.5905C24.6634 21.8443 24.6634 22.2557 24.4096 22.5096C24.2826 22.6365 24.1162 22.7 23.95 22.7C23.7838 22.7 23.6174 22.6365 23.4904 22.5096L20.05 19.0691L18.5596 20.5596C18.4326 20.6865 18.2662 20.75 18.1 20.75C17.9338 20.75 17.7674 20.6865 17.6405 20.5596L16.15 19.0691L12.7096 22.5096C12.5826 22.6365 12.4162 22.7 12.25 22.7C12.0838 22.7 11.9174 22.6365 11.7905 22.5096C11.5366 22.2557 11.5366 21.8443 11.7905 21.5905L15.2309 18.15L11.7905 14.7096C11.5366 14.4557 11.5366 14.0443 11.7905 13.7905C12.0443 13.5366 12.4557 13.5366 12.7096 13.7905L18.1 19.1809L23.4904 13.7905C23.7443 13.5366 24.1557 13.5366 24.4096 13.7905C24.6634 14.0443 24.6634 14.4557 24.4096 14.7096L20.9691 18.15L24.4096 21.5905Z" fill="#3C4B3A"/>
<defs>
<clipPath id="bgblur_0_904_5729_clip_path" transform="translate(54.4565 54.4565)"><rect width="36.3043" height="36.3043" rx="8.71304"/>
</clipPath></defs>
</svg>
