<?xml version="1.0" encoding="UTF-8"?>
<svg xmlns="http://www.w3.org/2000/svg" width="30" height="30" viewBox="0 0 30 30" fill="none">
  <path d="M22.4626 18.5997C19.5074 18.5997 16.7291 17.4489 14.6394 15.3592C12.5497 13.2696 11.399 10.4913 11.399 7.53611C11.399 6.67849 11.4976 5.82766 11.6916 5C7.78181 6.47151 5 10.2459 5 14.6703C5 20.375 9.62458 24.9996 15.3293 24.9996C19.7541 24.9996 23.5288 22.2172 25 18.3068C24.1719 18.5011 23.3207 18.5997 22.4626 18.5997Z" fill="white"></path>
  <path d="M22.4621 17.1328C23.2088 17.1328 23.9491 17.0468 24.6687 16.8776L13.1222 5.33203C12.9531 6.05141 12.8672 6.79145 12.8672 7.53785C12.8671 12.8285 17.1714 17.1328 22.4621 17.1328Z" fill="white"></path>
</svg>
