<?xml version="1.0" encoding="UTF-8"?>
<svg xmlns="http://www.w3.org/2000/svg" width="30" height="30" viewBox="0 0 30 30" fill="none">
  <path d="M16.1842 15.8935C16.3238 15.985 16.5131 15.9054 16.5426 15.7411C16.6839 14.9532 17.1694 14.2555 17.8793 13.8536C18.2867 13.623 18.7499 13.501 19.2188 13.501C19.7118 13.501 20.1954 13.6349 20.6181 13.8885C20.6437 13.9039 20.6692 13.9198 20.6923 13.935L23.2791 15.6284C23.4398 15.7336 23.6519 15.6114 23.6415 15.4196L23.298 9.0938C23.2484 8.20008 22.5083 7.5 21.6132 7.5H17.3869C16.4918 7.5 15.7517 8.20008 15.702 9.09384L15.3617 15.2152C15.357 15.2988 15.3973 15.3785 15.4673 15.4243L16.1842 15.8935Z" fill="white"></path>
  <path d="M10.5 10.125H5.25C4.00936 10.125 3 9.11564 3 7.875C3 6.63436 4.00936 5.625 5.25 5.625H5.625V5.25C5.625 4.00936 6.63436 3 7.875 3C9.11564 3 10.125 4.00936 10.125 5.25V5.625H10.5C11.7406 5.625 12.75 6.63436 12.75 7.875C12.75 9.11564 11.7406 10.125 10.5 10.125Z" fill="white"></path>
  <path d="M26.424 19.4798L19.8707 15.1899C19.8625 15.1846 19.8542 15.1794 19.8458 15.1743C19.4699 14.9488 18.9996 14.943 18.6182 15.1589C18.2369 15.3748 18 15.7812 18 16.2194V18.875L12.3707 15.1899C12.3625 15.1846 12.3542 15.1794 12.3458 15.1743C11.9699 14.9488 11.4996 14.943 11.1182 15.1589C10.7369 15.3748 10.5 15.7812 10.5 16.2194V18.875L4.87069 15.1899C4.86248 15.1846 4.85419 15.1794 4.84575 15.1743C4.46991 14.9488 3.99956 14.943 3.61823 15.1589C3.23691 15.3748 3 15.7812 3 16.2194V26.2499C3 26.6641 3.33581 26.9999 3.75 26.9999H11.25H18.75H26.25C26.6642 26.9999 27 26.6641 27 26.2499V20.5153C27 20.0958 26.7797 19.7007 26.424 19.4798ZM8.625 22.8749C8.625 23.2891 8.28919 23.6249 7.875 23.6249H7.125C6.71081 23.6249 6.375 23.2891 6.375 22.8749V22.1249C6.375 21.7107 6.71081 21.3749 7.125 21.3749H7.875C8.28919 21.3749 8.625 21.7107 8.625 22.1249V22.8749ZM16.125 22.8749C16.125 23.2891 15.7892 23.6249 15.375 23.6249H14.625C14.2108 23.6249 13.875 23.2891 13.875 22.8749V22.1249C13.875 21.7107 14.2108 21.3749 14.625 21.3749H15.375C15.7892 21.3749 16.125 21.7107 16.125 22.1249V22.8749ZM23.625 22.8749C23.625 23.2891 23.2892 23.6249 22.875 23.6249H22.125C21.7108 23.6249 21.375 23.2891 21.375 22.8749V22.1249C21.375 21.7107 21.7108 21.3749 22.125 21.3749H22.875C23.2892 21.3749 23.625 21.7107 23.625 22.1249V22.8749Z" fill="white"></path>
</svg>
